<svg width="115" height="115" viewBox="0 0 115 115" fill="none" xmlns="http://www.w3.org/2000/svg">
<g id="pattern">
<g id="Group 6">
<circle id="Ellipse 2" cx="33.6437" cy="1.83511" r="1.83511" fill="white"/>
<circle id="Ellipse 6" cx="33.6437" cy="17.7394" r="1.83511" fill="white"/>
<circle id="Ellipse 10" cx="33.6437" cy="33.6436" r="1.83511" fill="white"/>
<circle id="Ellipse 14" cx="33.6437" cy="49.5479" r="1.83511" fill="white"/>
<circle id="Ellipse 5" cx="49.548" cy="1.83511" r="1.83511" fill="white"/>
<circle id="Ellipse 7" cx="49.548" cy="17.7394" r="1.83511" fill="white"/>
<circle id="Ellipse 11" cx="49.548" cy="33.6436" r="1.83511" fill="white"/>
<circle id="Ellipse 15" cx="49.548" cy="49.5479" r="1.83511" fill="white"/>
<circle id="Ellipse 3" cx="17.7394" cy="1.83511" r="1.83511" fill="white"/>
<circle id="Ellipse 8" cx="17.7394" cy="17.7394" r="1.83511" fill="white"/>
<circle id="Ellipse 12" cx="17.7394" cy="33.6436" r="1.83511" fill="white"/>
<circle id="Ellipse 16" cx="17.7394" cy="49.5479" r="1.83511" fill="white"/>
<circle id="Ellipse 4" cx="1.83511" cy="1.83511" r="1.83511" fill="white"/>
<circle id="Ellipse 9" cx="1.83511" cy="17.7394" r="1.83511" fill="white"/>
<circle id="Ellipse 13" cx="1.83511" cy="33.6436" r="1.83511" fill="white"/>
<circle id="Ellipse 17" cx="1.83511" cy="49.5479" r="1.83511" fill="white"/>
</g>
<g id="Group 9">
<circle id="Ellipse 2_2" cx="33.6437" cy="65.4522" r="1.83511" fill="white"/>
<circle id="Ellipse 6_2" cx="33.6437" cy="81.3565" r="1.83511" fill="white"/>
<circle id="Ellipse 10_2" cx="33.6437" cy="97.2608" r="1.83511" fill="white"/>
<circle id="Ellipse 14_2" cx="33.6437" cy="113.165" r="1.83511" fill="white"/>
<circle id="Ellipse 5_2" cx="49.548" cy="65.4522" r="1.83511" fill="white"/>
<circle id="Ellipse 7_2" cx="49.548" cy="81.3565" r="1.83511" fill="white"/>
<circle id="Ellipse 11_2" cx="49.548" cy="97.2608" r="1.83511" fill="white"/>
<circle id="Ellipse 15_2" cx="49.548" cy="113.165" r="1.83511" fill="white"/>
<circle id="Ellipse 3_2" cx="17.7394" cy="65.4522" r="1.83511" fill="white"/>
<circle id="Ellipse 8_2" cx="17.7394" cy="81.3565" r="1.83511" fill="white"/>
<circle id="Ellipse 12_2" cx="17.7394" cy="97.2608" r="1.83511" fill="white"/>
<circle id="Ellipse 16_2" cx="17.7394" cy="113.165" r="1.83511" fill="white"/>
<circle id="Ellipse 4_2" cx="1.83511" cy="65.4522" r="1.83511" fill="white"/>
<circle id="Ellipse 9_2" cx="1.83511" cy="81.3565" r="1.83511" fill="white"/>
<circle id="Ellipse 13_2" cx="1.83511" cy="97.2608" r="1.83511" fill="white"/>
<circle id="Ellipse 17_2" cx="1.83511" cy="113.165" r="1.83511" fill="white"/>
</g>
<g id="Group 8">
<circle id="Ellipse 2_3" cx="97.2609" cy="1.83511" r="1.83511" fill="#B4B4B4"/>
<circle id="Ellipse 6_3" cx="97.2609" cy="17.7394" r="1.83511" fill="#B4B4B4"/>
<circle id="Ellipse 10_3" cx="97.2609" cy="33.6436" r="1.83511" fill="#B4B4B4"/>
<circle id="Ellipse 14_3" cx="97.2609" cy="49.5479" r="1.83511" fill="#B4B4B4"/>
<circle id="Ellipse 5_3" cx="113.165" cy="1.83511" r="1.83511" fill="#B4B4B4"/>
<circle id="Ellipse 7_3" cx="113.165" cy="17.7394" r="1.83511" fill="#B4B4B4"/>
<circle id="Ellipse 11_3" cx="113.165" cy="33.6436" r="1.83511" fill="#B4B4B4"/>
<circle id="Ellipse 15_3" cx="113.165" cy="49.5479" r="1.83511" fill="#B4B4B4"/>
<circle id="Ellipse 3_3" cx="81.3566" cy="1.83511" r="1.83511" fill="#B4B4B4"/>
<circle id="Ellipse 8_3" cx="81.3566" cy="17.7394" r="1.83511" fill="#B4B4B4"/>
<circle id="Ellipse 12_3" cx="81.3566" cy="33.6436" r="1.83511" fill="#B4B4B4"/>
<circle id="Ellipse 16_3" cx="81.3566" cy="49.5479" r="1.83511" fill="#B4B4B4"/>
<circle id="Ellipse 4_3" cx="65.4523" cy="1.83511" r="1.83511" fill="#B4B4B4"/>
<circle id="Ellipse 9_3" cx="65.4523" cy="17.7394" r="1.83511" fill="#B4B4B4"/>
<circle id="Ellipse 13_3" cx="65.4523" cy="33.6436" r="1.83511" fill="#B4B4B4"/>
<circle id="Ellipse 17_3" cx="65.4523" cy="49.5479" r="1.83511" fill="#B4B4B4"/>
</g>
<g id="Group 10">
<circle id="Ellipse 2_4" cx="97.2609" cy="65.4522" r="1.83511" fill="white"/>
<circle id="Ellipse 6_4" cx="97.2609" cy="81.3565" r="1.83511" fill="white"/>
<circle id="Ellipse 10_4" cx="97.2609" cy="97.2608" r="1.83511" fill="white"/>
<circle id="Ellipse 14_4" cx="97.2609" cy="113.165" r="1.83511" fill="white"/>
<circle id="Ellipse 5_4" cx="113.165" cy="65.4522" r="1.83511" fill="white"/>
<circle id="Ellipse 7_4" cx="113.165" cy="81.3565" r="1.83511" fill="white"/>
<circle id="Ellipse 11_4" cx="113.165" cy="97.2608" r="1.83511" fill="white"/>
<circle id="Ellipse 15_4" cx="113.165" cy="113.165" r="1.83511" fill="white"/>
<circle id="Ellipse 3_4" cx="81.3566" cy="65.4522" r="1.83511" fill="white"/>
<circle id="Ellipse 8_4" cx="81.3566" cy="81.3565" r="1.83511" fill="white"/>
<circle id="Ellipse 12_4" cx="81.3566" cy="97.2608" r="1.83511" fill="white"/>
<circle id="Ellipse 16_4" cx="81.3566" cy="113.165" r="1.83511" fill="white"/>
<circle id="Ellipse 4_4" cx="65.4523" cy="65.4522" r="1.83511" fill="white"/>
<circle id="Ellipse 9_4" cx="65.4523" cy="81.3565" r="1.83511" fill="white"/>
<circle id="Ellipse 13_4" cx="65.4523" cy="97.2608" r="1.83511" fill="white"/>
<circle id="Ellipse 17_4" cx="65.4523" cy="113.165" r="1.83511" fill="white"/>
</g>
</g>
</svg>
