<svg width="25" height="25" viewBox="0 0 25 25" fill="none" xmlns="http://www.w3.org/2000/svg">
<g clip-path="url(#clip0_83_934)">
<path d="M8.96515 21.4142C9.79672 21.4142 10.4708 20.7401 10.4708 19.9085C10.4708 19.0769 9.79672 18.4028 8.96515 18.4028C8.13359 18.4028 7.45947 19.0769 7.45947 19.9085C7.45947 20.7401 8.13359 21.4142 8.96515 21.4142Z" fill="white"/>
<path d="M18.1131 21.4142C18.9447 21.4142 19.6188 20.7401 19.6188 19.9085C19.6188 19.0769 18.9447 18.4028 18.1131 18.4028C17.2815 18.4028 16.6074 19.0769 16.6074 19.9085C16.6074 20.7401 17.2815 21.4142 18.1131 21.4142Z" fill="white"/>
<path d="M22.1816 3.59355C22.1194 3.51679 22.0409 3.45477 21.9518 3.41196C21.8627 3.36915 21.7652 3.34661 21.6664 3.34595H7.73378L8.16876 4.68434H20.7897L19.003 12.7146H8.96509L5.90689 3.03143C5.87381 2.92869 5.81636 2.83546 5.73946 2.75972C5.66255 2.68398 5.56846 2.62797 5.46522 2.59646L2.72153 1.75328C2.63717 1.72736 2.54853 1.7183 2.46066 1.72664C2.3728 1.73497 2.28744 1.76053 2.20945 1.80185C2.05195 1.88531 1.93406 2.02791 1.8817 2.19829C1.82934 2.36867 1.84681 2.55287 1.93027 2.71037C2.01373 2.86787 2.15633 2.98577 2.32671 3.03813L4.72911 3.77424L7.8007 13.4775L6.70323 14.3742L6.61623 14.4612C6.34476 14.7741 6.19089 15.1718 6.18112 15.5859C6.17135 15.9999 6.30629 16.4045 6.5627 16.7298C6.74509 16.9516 6.97686 17.1276 7.23948 17.2438C7.50209 17.36 7.78825 17.4132 8.07507 17.399H19.2439C19.4214 17.399 19.5916 17.3285 19.7171 17.203C19.8426 17.0775 19.9131 16.9072 19.9131 16.7298C19.9131 16.5523 19.8426 16.3821 19.7171 16.2566C19.5916 16.1311 19.4214 16.0606 19.2439 16.0606H7.968C7.89094 16.0579 7.81586 16.0355 7.75001 15.9954C7.68417 15.9552 7.62978 15.8988 7.59211 15.8316C7.55444 15.7643 7.53475 15.6884 7.53495 15.6113C7.53515 15.5342 7.55523 15.4585 7.59325 15.3914L9.206 14.053H19.5383C19.693 14.0568 19.8442 14.0068 19.9662 13.9117C20.0883 13.8165 20.1735 13.682 20.2075 13.531L22.3289 4.16237C22.3492 4.0626 22.3465 3.95951 22.321 3.86094C22.2955 3.76237 22.2478 3.67092 22.1816 3.59355Z" fill="white"/>
</g>
<defs>
<clipPath id="clip0_83_934">
<rect width="24.0909" height="24.0909" fill="white" transform="translate(0.0449219)"/>
</clipPath>
</defs>
</svg>
